<svg id="Capa_1" enable-background="new 0 0 512 512" height="512" viewBox="0 0 512 512" width="512" xmlns="http://www.w3.org/2000/svg"><g id="XMLID_3028_"><path id="XMLID_3047_" d="m112 86h48v44h-48z" fill="#fff2a0"/><path id="XMLID_3046_" d="m454 130h-396c-26.51 0-48 21.49-48 48v200c0 26.51 21.49 48 48 48h396c26.51 0 48-21.49 48-48v-200c0-26.51-21.49-48-48-48z" fill="#ffda8f"/><path id="XMLID_3043_" d="m58 178h396v200h-396z" fill="#fff"/><g id="XMLID_1562_" fill="#ffa96b"><path id="XMLID_1573_" d="m454 120h-284v-34c0-5.522-4.477-10-10-10h-48c-5.523 0-10 4.478-10 10v34h-44c-31.981 0-58 26.019-58 58v200c0 31.981 26.019 58 58 58h396c31.981 0 58-26.019 58-58v-200c0-31.981-26.019-58-58-58zm-332-24h28v24h-28zm370 282c0 20.953-17.047 38-38 38h-396c-20.953 0-38-17.047-38-38v-200c0-20.953 17.047-38 38-38h396c20.953 0 38 17.047 38 38z"/><path id="XMLID_1579_" d="m194.781 227.817c-.035-.094-.071-.186-.109-.277-1.887-4.582-6.304-7.54-11.258-7.54-.004 0-.009 0-.014 0-4.959.006-9.377 2.976-11.256 7.565-.031.076-.061.151-.09.228l-36.048 94.647c-1.966 5.161.625 10.939 5.786 12.904 1.171.446 2.374.658 3.557.658 4.03 0 7.828-2.454 9.347-6.443l6.525-17.132h44.114l6.454 17.103c1.95 5.167 7.721 7.778 12.887 5.825 5.167-1.949 7.775-7.719 5.825-12.886zm-25.943 64.611 14.541-38.179 14.408 38.179z"/><path id="XMLID_1583_" d="m358.6 229.858c-.008-.04-.016-.079-.023-.119-1.103-5.412-5.724-9.408-11.238-9.72-5.513-.296-10.556 3.14-12.26 8.394-.037.114-.072.229-.105.345l-19.087 66.955-19.785-67.06c-.035-.118-.072-.235-.111-.353-1.758-5.237-6.833-8.651-12.349-8.268-5.513.369-10.092 4.416-11.136 9.842-.007.038-.014.075-.021.113l-16.873 93.485c-.981 5.436 2.629 10.637 8.064 11.617 5.436.982 10.636-2.63 11.617-8.064l11-60.942 18.076 61.268c.035.118.072.236.112.354 1.668 4.969 6.299 8.295 11.535 8.295h.064c5.261-.027 9.887-3.408 11.511-8.413.037-.114.072-.229.104-.345l17.454-61.224 11.679 61.108c1.036 5.425 6.276 8.979 11.699 7.945 5.425-1.037 8.982-6.274 7.945-11.699z"/></g><circle id="XMLID_3035_" cx="410.325" cy="278" fill="#fff2a0" r="16"/><g fill="#d8f1d1"><circle id="XMLID_3032_" cx="410.325" cy="278" r="16"/><circle id="XMLID_3029_" cx="101.675" cy="278" r="16"/></g></g></svg>