<svg id="Capa_1" enable-background="new 0 0 512 512" height="512" viewBox="0 0 512 512" width="512" xmlns="http://www.w3.org/2000/svg"><g id="XMLID_3343_"><path id="XMLID_3383_" d="m112 86h48v44h-48z" fill="#d7f4fb"/><path id="XMLID_3382_" d="m454 130h-396c-26.51 0-48 21.49-48 48v200c0 26.51 21.49 48 48 48h396c26.51 0 48-21.49 48-48v-200c0-26.51-21.49-48-48-48z" fill="#b3e9f8"/><path id="XMLID_3380_" d="m58 178h396v200h-396z" fill="#fff"/><g id="XMLID_300_" fill="#80b6ff"><path id="XMLID_308_" d="m454 120h-284v-34c0-5.522-4.478-10-10-10h-48c-5.522 0-10 4.478-10 10v34h-44c-31.981 0-58 26.019-58 58v200c0 31.981 26.019 58 58 58h396c31.981 0 58-26.019 58-58v-200c0-31.981-26.019-58-58-58zm-332-24h28v24h-28zm370 282c0 20.953-17.047 38-38 38h-396c-20.953 0-38-17.047-38-38v-200c0-20.953 17.047-38 38-38h396c20.953 0 38 17.047 38 38z"/><path id="XMLID_328_" d="m343.559 229.858c-.008-.041-.016-.081-.024-.121-1.103-5.41-5.724-9.406-11.235-9.718-5.512-.303-10.555 3.138-12.261 8.39-.037.115-.073.231-.106.349l-19.086 66.954-19.785-67.059c-.034-.118-.072-.237-.111-.354-1.759-5.236-6.85-8.636-12.348-8.266-5.512.369-10.092 4.415-11.137 9.84-.008.038-.015.077-.021.115l-16.873 93.485c-.981 5.436 2.63 10.637 8.064 11.617 5.432.982 10.637-2.63 11.617-8.064l11-60.943 18.076 61.269c.034.118.071.235.11.352 1.668 4.97 6.298 8.297 11.535 8.297h.062c5.262-.026 9.889-3.406 11.514-8.411.037-.115.072-.23.105-.347l17.453-61.225 11.679 61.109c1.037 5.424 6.272 8.983 11.699 7.945 5.425-1.037 8.982-6.274 7.945-11.699z"/><path id="XMLID_331_" d="m187.072 220.127h-26.681c-5.522 0-10 4.478-10 10v96c0 5.522 4.478 10 10 10s10-4.478 10-10v-31.698h16.681c20.744 0 37.621-16.692 37.621-37.211 0-20.452-16.877-37.091-37.621-37.091zm0 54.302h-16.681v-34.302h16.681c9.552 0 17.621 7.826 17.621 17.091 0 9.329-8.069 17.211-17.621 17.211z"/></g><g fill="#fff2a0"><circle id="XMLID_3372_" cx="410.325" cy="278" r="16"/><circle id="XMLID_3371_" cx="410.325" cy="278" r="16"/><circle id="XMLID_3344_" cx="101.675" cy="278" r="16"/></g></g></svg>